<svg xmlns="http://www.w3.org/2000/svg" width="512" height="512" viewBox="0 0 512 512">
  <defs>
    <linearGradient id="background" x1="0" y1="0" x2="1" y2="1">
      <stop offset="0" stop-color="#242b3b"/>
      <stop offset="1" stop-color="#151923"/>
    </linearGradient>
    <linearGradient id="label" x1="0" y1="0" x2="0" y2="1">
      <stop offset="0" stop-color="#f8c56e"/>
      <stop offset="1" stop-color="#efa23b"/>
    </linearGradient>
    <filter id="shadow" x="-30%" y="-30%" width="160%" height="170%">
      <feDropShadow dx="0" dy="12" stdDeviation="12" flood-color="#090b11" flood-opacity="0.42"/>
    </filter>
  </defs>
  <rect x="18" y="18" width="476" height="476" rx="104" fill="url(#background)"/>
  <rect x="20" y="20" width="472" height="472" rx="102" fill="none" stroke="#f2a33c" stroke-opacity="0.32" stroke-width="4"/>

  <g filter="url(#shadow)">
    <path d="M190 91V75q0-16 16-16h100q16 0 16 16v16h29q20 0 20 20v164q0 22-20 22H161q-20 0-20-22V111q0-20 20-20z" fill="#343b4c" stroke="#f2a33c" stroke-width="8" stroke-linejoin="round"/>
    <path d="M192 92V78q0-9 10-9h108q9 0 9 9v14" fill="none" stroke="#f7bd5c" stroke-width="7" stroke-linecap="round"/>
    <rect x="171" y="119" width="170" height="127" rx="16" fill="#1c2230" stroke="#596275" stroke-width="3"/>
    <rect x="189" y="137" width="134" height="91" rx="11" fill="url(#label)"/>
    <text x="256" y="216" text-anchor="middle" fill="#252b38" font-family="DejaVu Sans, Arial, sans-serif" font-size="82" font-weight="700">R</text>
    <path d="M168 263h176" stroke="#f2a33c" stroke-width="7" stroke-linecap="round"/>
    <path d="M184 296v21m36-21v21m36-21v21m36-21v21m36-21v21" stroke="#f2a33c" stroke-width="9" stroke-linecap="round"/>
  </g>

  <text x="256" y="410" text-anchor="end" fill="#f5f1e8" font-family="DejaVu Sans, Arial, sans-serif" font-size="61" font-weight="700" letter-spacing="-2">ROM</text>
  <text x="256" y="410" text-anchor="start" fill="#f2a33c" font-family="DejaVu Sans, Arial, sans-serif" font-size="61" font-weight="700" letter-spacing="-2">arr</text>
  <circle cx="398" cy="389" r="5" fill="#f2a33c" opacity="0.7"/>
  <circle cx="414" cy="405" r="3" fill="#f5f1e8" opacity="0.45"/>
</svg>
